#N canvas 224 220 997 689 10;
#X declare -path Fraise -stdpath Fraise;
#X obj 19 16 declare -path Fraise -stdpath Fraise;
#X obj 20 60 pied/pied 0 41425;
#X obj 42 213 fruit/receive fruit1;
#X obj 104 280 route M;
#X obj 104 302 unpack f f;
#X floatatom 268 359 5 0 0 0 - - -, f 5;
#X floatatom 177 328 5 0 0 0 - - -, f 5;
#X obj 209 290 print;
#X obj 104 333 / 1024;
#X obj 107 354 hsl 128 15 -1 1 0 0 empty empty empty -2 -8 0 10 -262144
-1 -1 6350 1;
#X obj 20 39 r piedOn;
#X obj 43 247 analog/parse;
#X obj 43 269 route 0;
#X floatatom 192 545 5 0 0 0 - - -, f 5;
#X floatatom 14 428 5 0 0 0 - - -, f 5;
#X obj 20 136 fruit/fruit 1 fruit1 10 melangeur;
#X obj 14 338 * 11;
#X obj 14 382 i;
#X obj 14 404 change;
#X floatatom 64 345 5 0 0 0 - - -, f 5;
#X obj 14 360 + 0.5;
#X obj 369 336 fruit/send fruit1;
#X msg 466 307 SAVE;
#X obj 17 452 hradio 15 1 0 11 empty empty empty 0 -8 0 10 -262144
-1 -1 1;
#X obj 257 92 ramp/ramp fruit1 121 speedRamp;
#X msg 340 301 c 120 c 4 i \$1;
#X floatatom 643 285 5 0 0 0 - - -, f 5;
#X msg 624 324 dest \$1;
#X obj 630 352 s fruit1-speedRamp-params;
#X obj 628 234 hsl 128 15 0 1023 0 0 empty empty empty -2 -8 0 10 -262144
-1 -1 0 1;
#X obj 212 445 * 1023;
#X floatatom 267 557 5 0 0 0 - - -, f 5;
#X obj 311 564 moses 5;
#X msg 311 586 0;
#X floatatom 327 650 5 0 0 0 - - -, f 5;
#X obj 311 545 i;
#X floatatom 265 610 5 0 0 0 - - -, f 5;
#X obj 15 317 / 32768;
#X msg 559 546 32768;
#X obj 559 590 * 8;
#X floatatom 559 612 5 0 0 0 - - -, f 5;
#X obj 559 568 / 256;
#X obj 311 523 / 256;
#X obj 478 560 + 50;
#X obj 477 580 * 6;
#X obj 330 417 hsl 128 15 0 32768 0 0 empty empty empty -2 -8 0 10
-262144 -1 -1 12700 1;
#X obj 350 609 + 350;
#X floatatom 412 637 5 0 0 0 - - -, f 5;
#X obj 350 587 * 1;
#X connect 2 0 11 0;
#X connect 3 0 4 0;
#X connect 4 0 8 0;
#X connect 4 0 5 0;
#X connect 4 1 6 0;
#X connect 8 0 9 0;
#X connect 10 0 1 0;
#X connect 11 0 12 0;
#X connect 11 1 3 0;
#X connect 12 0 13 0;
#X connect 12 0 37 0;
#X connect 12 0 42 0;
#X connect 14 0 23 0;
#X connect 16 0 20 0;
#X connect 17 0 18 0;
#X connect 18 0 14 0;
#X connect 20 0 17 0;
#X connect 22 0 21 1;
#X connect 25 0 21 0;
#X connect 26 0 27 0;
#X connect 27 0 28 0;
#X connect 29 0 26 0;
#X connect 32 0 33 0;
#X connect 32 1 43 0;
#X connect 32 1 48 0;
#X connect 33 0 34 0;
#X connect 35 0 32 0;
#X connect 35 0 36 0;
#X connect 37 0 16 0;
#X connect 37 0 30 0;
#X connect 38 0 41 0;
#X connect 39 0 40 0;
#X connect 41 0 39 0;
#X connect 42 0 31 0;
#X connect 42 0 35 0;
#X connect 43 0 44 0;
#X connect 45 0 42 0;
#X connect 46 0 34 0;
#X connect 48 0 46 0;
